<?xml version="1.0" standalone="no"?>
<!DOCTYPE svg PUBLIC "-//W3C//DTD SVG 20010904//EN"
 "http://www.w3.org/TR/2001/REC-SVG-20010904/DTD/svg10.dtd">
<svg version="1.0" xmlns="http://www.w3.org/2000/svg"
 width="120.000000pt" height="80.000000pt" viewBox="0 0 120.000000 80.000000"
 preserveAspectRatio="xMidYMid meet">
<metadata>
Created by potrace 1.16, written by Peter Selinger 2001-2019
</metadata>
<g transform="translate(0.000000,80.000000) scale(0.024000,-0.016000)"
fill="#000000" stroke="none">
<path d="M0 2500 l0 -2500 2500 0 2500 0 0 2500 0 2500 -2500 0 -2500 0 0
-2500z m2528 277 c634 -634 892 -899 892 -914 0 -13 -8 -24 -21 -28 -19 -6
-151 122 -920 891 -495 495 -899 906 -899 915 0 21 9 29 34 29 15 0 299 -278
914 -893z m890 287 c2 -649 3 -641 -47 -614 -21 11 -21 15 -21 558 l0 547
-304 -304 c-310 -310 -336 -330 -344 -272 -3 20 53 81 330 358 279 280 337
333 358 331 l25 -3 3 -601z m-1469 -258 c214 -215 312 -319 309 -331 -1 -10
-11 -23 -20 -29 -16 -9 -58 29 -303 274 l-285 285 -2 -579 c-3 -528 -4 -580
-20 -589 -12 -8 -21 -7 -32 2 -14 12 -16 81 -16 641 0 344 3 630 7 633 24 25
62 -7 362 -307z"/>
</g>
</svg>
